# xmcd
#
# Track frame offsets: 
#        150
#        11980
#        23002
#        31937
#        41813
#        56513
#        68514
#        81874
#        92906
#        104247
#        115361
#        126708
#        139631
#        153470
#        177035
#        188155
#
# Disc length: 2793 seconds
#
# Revision: 0
# Processed by: cddbd v1.5.2PL0 Copyright (c) Steve Scherf et al.
# Submitted via: ExactAudioCopy v0.95b4
#
DISCID=df0ae710
DTITLE=Johnny Copeland - An Introduction to
DYEAR=2006
DGENRE=Blues
TTITLE0=Down on Bending Knees
TTITLE1=Please Let Me Know
TTITLE2=Hear What I Said
TTITLE3=Late Hours
TTITLE4=I Need You Now
TTITLE5=Heebie Jeebies
TTITLE6=Just One More Time
TTITLE7=There's a Blessing
TTITLE8=May the Best Man Win
TTITLE9=Mama Told Me
TTITLE10=Your Game Is Working
TTITLE11=I'll Be Around
TTITLE12=Working Man's Blues
TTITLE13=Night Time (Parts 1 and 2)
TTITLE14=Coming to See About You
TTITLE15=Traveling Blues
EXTD=
EXTT0=
EXTT1=
EXTT2=
EXTT3=
EXTT4=
EXTT5=
EXTT6=
EXTT7=
EXTT8=
EXTT9=
EXTT10=
EXTT11=
EXTT12=
EXTT13=
EXTT14=
EXTT15=
PLAYORDER=
